<svg xmlns="http://www.w3.org/2000/svg" viewBox="0 0 48 48" id="video"><path d="M40 10.5H8A5.51 5.51 0 0 0 2.5 16v16c0 3.03 2.47 5.5 5.5 5.5h32c3.03 0 5.5-2.47 5.5-5.5V16c0-3.03-2.47-5.5-5.5-5.5zM42.5 22v10a2.5 2.5 0 0 1-2.5 2.5H8A2.5 2.5 0 0 1 5.5 32V16A2.5 2.5 0 0 1 8 13.5h32a2.5 2.5 0 0 1 2.5 2.5v6z"></path><path d="m32.67 22.66-12-6c-.46-.23-1.02-.21-1.46.07-.44.27-.71.75-.71 1.27v12c0 .52.27 1 .71 1.28.24.15.51.22.79.22.23 0 .46-.05.67-.16l12-6c.51-.25.83-.77.83-1.34s-.32-1.09-.83-1.34zM21.5 27.57v-7.15L28.65 24l-7.15 3.57z"></path></svg>